<svg width="24" height="24" viewBox="0 0 24 24" fill="none" xmlns="http://www.w3.org/2000/svg">
<g clip-path="url(#clip0_27257_86330)">
<path d="M18.0078 20C19.1124 20 20.0078 19.1046 20.0078 18C20.0078 16.8954 19.1124 16 18.0078 16C16.9032 16 16.0078 16.8954 16.0078 18C16.0078 19.1046 16.9032 20 18.0078 20Z" fill="#34A853"/>
<path d="M12.0078 16C13.6647 16 15.0078 14.6569 15.0078 13C15.0078 11.3431 13.6647 10 12.0078 10C10.351 10 9.00781 11.3431 9.00781 13C9.00781 14.6569 10.351 16 12.0078 16Z" fill="#4285F4"/>
<path d="M3 16.9C3 19.1637 4.83625 21 7.1 21H12V19L6.9875 18.9875C5.8875 18.9875 5 17.9638 5 16.75V14.5H3V16.9Z" fill="#EA4335"/>
<path d="M21 9.1C21 6.83625 19.1637 5 16.9 5H14.5L17 7C18.1 7 19 8.03625 19 9.25V13H21V9.1Z" fill="#FBBC04"/>
<path d="M14 3H10L8.5 5H7.1C4.83625 5 3 6.83625 3 9.1V11.5H5V9.25C5 8.03625 5.9 7 7 7H17L14 3Z" fill="#4285F4"/>
</g>
<defs>
<clipPath id="clip0_27257_86330">
<rect width="24" height="24" fill="white"/>
</clipPath>
</defs>
</svg>
